<svg xmlns="http://www.w3.org/2000/svg" width="700" height="500" viewBox="0 0 700 500">
<rect width="100%" height="100%" fill="white"/>
<text x="350.0" y="30" font-size="18" font-family="Arial" text-anchor="middle" font-weight="bold">Unsupported violation rate by model and salience</text>
<text x="285.0" y="52" font-size="13" font-family="Arial" text-anchor="middle" font-weight="bold">low</text>
<text x="435.0" y="52" font-size="13" font-family="Arial" text-anchor="middle" font-weight="bold">medium</text>
<text x="585.0" y="52" font-size="13" font-family="Arial" text-anchor="middle" font-weight="bold">high</text>
<text x="200" y="95" font-size="12" font-family="Arial" text-anchor="end" font-weight="normal">Claude Haiku 4.5</text>
<rect x="210" y="70" width="150" height="40" fill="#ffdbd3" stroke="#999"/>
<text x="285.0" y="95" font-size="12" font-family="Arial" text-anchor="middle" font-weight="normal">2/15 (13.3%)</text>
<rect x="360" y="70" width="150" height="40" fill="#fff5f0" stroke="#999"/>
<text x="435.0" y="95" font-size="12" font-family="Arial" text-anchor="middle" font-weight="normal">0/15 (0.0%)</text>
<rect x="510" y="70" width="150" height="40" fill="#fff5f0" stroke="#999"/>
<text x="585.0" y="95" font-size="12" font-family="Arial" text-anchor="middle" font-weight="normal">0/15 (0.0%)</text>
<text x="200" y="135" font-size="12" font-family="Arial" text-anchor="end" font-weight="normal">Gemini 2.5 Flash</text>
<rect x="210" y="110" width="150" height="40" fill="#ffe8e1" stroke="#999"/>
<text x="285.0" y="135" font-size="12" font-family="Arial" text-anchor="middle" font-weight="normal">1/15 (6.7%)</text>
<rect x="360" y="110" width="150" height="40" fill="#fff5f0" stroke="#999"/>
<text x="435.0" y="135" font-size="12" font-family="Arial" text-anchor="middle" font-weight="normal">0/15 (0.0%)</text>
<rect x="510" y="110" width="150" height="40" fill="#fff5f0" stroke="#999"/>
<text x="585.0" y="135" font-size="12" font-family="Arial" text-anchor="middle" font-weight="normal">0/15 (0.0%)</text>
<text x="200" y="175" font-size="12" font-family="Arial" text-anchor="end" font-weight="normal">Gemini 2.5 Flash-Lite</text>
<rect x="210" y="150" width="150" height="40" fill="#ff9c8d" stroke="#999"/>
<text x="285.0" y="175" font-size="12" font-family="Arial" text-anchor="middle" font-weight="normal">7/15 (46.7%)</text>
<rect x="360" y="150" width="150" height="40" fill="#ffc2b7" stroke="#999"/>
<text x="435.0" y="175" font-size="12" font-family="Arial" text-anchor="middle" font-weight="normal">4/15 (26.7%)</text>
<rect x="510" y="150" width="150" height="40" fill="#ffcfc5" stroke="#999"/>
<text x="585.0" y="175" font-size="12" font-family="Arial" text-anchor="middle" font-weight="normal">3/15 (20.0%)</text>
<text x="200" y="215" font-size="12" font-family="Arial" text-anchor="end" font-weight="normal">Gemini 2.5 Pro</text>
<rect x="210" y="190" width="150" height="40" fill="#ffc2b7" stroke="#999"/>
<text x="285.0" y="215" font-size="12" font-family="Arial" text-anchor="middle" font-weight="normal">4/15 (26.7%)</text>
<rect x="360" y="190" width="150" height="40" fill="#ffe8e1" stroke="#999"/>
<text x="435.0" y="215" font-size="12" font-family="Arial" text-anchor="middle" font-weight="normal">1/15 (6.7%)</text>
<rect x="510" y="190" width="150" height="40" fill="#ffe8e1" stroke="#999"/>
<text x="585.0" y="215" font-size="12" font-family="Arial" text-anchor="middle" font-weight="normal">1/15 (6.7%)</text>
<text x="200" y="255" font-size="12" font-family="Arial" text-anchor="end" font-weight="normal">GPT-4.1</text>
<rect x="210" y="230" width="150" height="40" fill="#ff5139" stroke="#999"/>
<text x="285.0" y="255" font-size="12" font-family="Arial" text-anchor="middle" font-weight="normal">13/15 (86.7%)</text>
<rect x="360" y="230" width="150" height="40" fill="#ffc2b7" stroke="#999"/>
<text x="435.0" y="255" font-size="12" font-family="Arial" text-anchor="middle" font-weight="normal">4/15 (26.7%)</text>
<rect x="510" y="230" width="150" height="40" fill="#fff5f0" stroke="#999"/>
<text x="585.0" y="255" font-size="12" font-family="Arial" text-anchor="middle" font-weight="normal">0/15 (0.0%)</text>
<text x="200" y="295" font-size="12" font-family="Arial" text-anchor="end" font-weight="normal">GPT-4.1-mini</text>
<rect x="210" y="270" width="150" height="40" fill="#ff5d47" stroke="#999"/>
<text x="285.0" y="295" font-size="12" font-family="Arial" text-anchor="middle" font-weight="normal">12/15 (80.0%)</text>
<rect x="360" y="270" width="150" height="40" fill="#ff9c8d" stroke="#999"/>
<text x="435.0" y="295" font-size="12" font-family="Arial" text-anchor="middle" font-weight="normal">7/15 (46.7%)</text>
<rect x="510" y="270" width="150" height="40" fill="#fff5f0" stroke="#999"/>
<text x="585.0" y="295" font-size="12" font-family="Arial" text-anchor="middle" font-weight="normal">0/15 (0.0%)</text>
<text x="200" y="335" font-size="12" font-family="Arial" text-anchor="end" font-weight="normal">GPT-4.1-nano</text>
<rect x="210" y="310" width="150" height="40" fill="#ff907f" stroke="#999"/>
<text x="285.0" y="335" font-size="12" font-family="Arial" text-anchor="middle" font-weight="normal">8/15 (53.3%)</text>
<rect x="360" y="310" width="150" height="40" fill="#ffe8e1" stroke="#999"/>
<text x="435.0" y="335" font-size="12" font-family="Arial" text-anchor="middle" font-weight="normal">1/15 (6.7%)</text>
<rect x="510" y="310" width="150" height="40" fill="#fff5f0" stroke="#999"/>
<text x="585.0" y="335" font-size="12" font-family="Arial" text-anchor="middle" font-weight="normal">0/15 (0.0%)</text>
<text x="200" y="375" font-size="12" font-family="Arial" text-anchor="end" font-weight="normal">GPT-4o</text>
<rect x="210" y="350" width="150" height="40" fill="#ff7763" stroke="#999"/>
<text x="285.0" y="375" font-size="12" font-family="Arial" text-anchor="middle" font-weight="normal">10/15 (66.7%)</text>
<rect x="360" y="350" width="150" height="40" fill="#ffc2b7" stroke="#999"/>
<text x="435.0" y="375" font-size="12" font-family="Arial" text-anchor="middle" font-weight="normal">4/15 (26.7%)</text>
<rect x="510" y="350" width="150" height="40" fill="#ffe8e1" stroke="#999"/>
<text x="585.0" y="375" font-size="12" font-family="Arial" text-anchor="middle" font-weight="normal">1/15 (6.7%)</text>
<text x="200" y="415" font-size="12" font-family="Arial" text-anchor="end" font-weight="normal">GPT-4o-mini</text>
<rect x="210" y="390" width="150" height="40" fill="#ff7763" stroke="#999"/>
<text x="285.0" y="415" font-size="12" font-family="Arial" text-anchor="middle" font-weight="normal">10/15 (66.7%)</text>
<rect x="360" y="390" width="150" height="40" fill="#ffe8e1" stroke="#999"/>
<text x="435.0" y="415" font-size="12" font-family="Arial" text-anchor="middle" font-weight="normal">1/15 (6.7%)</text>
<rect x="510" y="390" width="150" height="40" fill="#fff5f0" stroke="#999"/>
<text x="585.0" y="415" font-size="12" font-family="Arial" text-anchor="middle" font-weight="normal">0/15 (0.0%)</text>
</svg>