<svg xmlns="http://www.w3.org/2000/svg" width="760" height="460" viewBox="0 0 760 460">
<rect width="100%" height="100%" fill="white"/>
<text x="380.0" y="30" font-size="18" font-family="Arial" text-anchor="middle" font-weight="bold">Unsupported-condition violation rate by salience</text>
<line x1="90" y1="380" x2="700" y2="380" stroke="#222"/>
<line x1="90" y1="60" x2="90" y2="380" stroke="#222"/>
<line x1="85" y1="380.0" x2="90" y2="380.0" stroke="#222"/>
<text x="78" y="385.0" font-size="12" font-family="Arial" text-anchor="end" font-weight="normal">0%</text>
<line x1="85" y1="316.0" x2="90" y2="316.0" stroke="#222"/>
<text x="78" y="321.0" font-size="12" font-family="Arial" text-anchor="end" font-weight="normal">10%</text>
<line x1="90" y1="316.0" x2="700" y2="316.0" stroke="#ddd"/>
<line x1="85" y1="252.0" x2="90" y2="252.0" stroke="#222"/>
<text x="78" y="257.0" font-size="12" font-family="Arial" text-anchor="end" font-weight="normal">20%</text>
<line x1="90" y1="252.0" x2="700" y2="252.0" stroke="#ddd"/>
<line x1="85" y1="188.0" x2="90" y2="188.0" stroke="#222"/>
<text x="78" y="193.0" font-size="12" font-family="Arial" text-anchor="end" font-weight="normal">30%</text>
<line x1="90" y1="188.0" x2="700" y2="188.0" stroke="#ddd"/>
<line x1="85" y1="124.0" x2="90" y2="124.0" stroke="#222"/>
<text x="78" y="129.0" font-size="12" font-family="Arial" text-anchor="end" font-weight="normal">40%</text>
<line x1="90" y1="124.0" x2="700" y2="124.0" stroke="#ddd"/>
<line x1="85" y1="60.0" x2="90" y2="60.0" stroke="#222"/>
<text x="78" y="65.0" font-size="12" font-family="Arial" text-anchor="end" font-weight="normal">50%</text>
<line x1="90" y1="60.0" x2="700" y2="60.0" stroke="#ddd"/>
<rect x="170" y="62.4" width="120" height="317.6" fill="#8f2d56"/>
<text x="230.0" y="52.37037037037044" font-size="13" font-family="Arial" text-anchor="middle" font-weight="normal">67/135 (49.6%)</text>
<text x="230.0" y="408" font-size="14" font-family="Arial" text-anchor="middle" font-weight="normal">low</text>
<rect x="370" y="275.7" width="120" height="104.3" fill="#d95f02"/>
<text x="430.0" y="265.7037037037037" font-size="13" font-family="Arial" text-anchor="middle" font-weight="normal">22/135 (16.3%)</text>
<text x="430.0" y="408" font-size="14" font-family="Arial" text-anchor="middle" font-weight="normal">medium</text>
<rect x="570" y="356.3" width="120" height="23.7" fill="#1b9e77"/>
<text x="630.0" y="346.2962962962963" font-size="13" font-family="Arial" text-anchor="middle" font-weight="normal">5/135 (3.7%)</text>
<text x="630.0" y="408" font-size="14" font-family="Arial" text-anchor="middle" font-weight="normal">high</text>
<text x="28" y="220.0" font-size="13" font-family="Arial" text-anchor="middle" font-weight="normal">Violation rate</text>
</svg>